<mxfile host="app.diagrams.net" modified="2021-10-28T00:41:15.670Z" agent="5.0 (Windows NT 10.0; Win64; x64) AppleWebKit/537.36 (KHTML, like Gecko) Chrome/95.0.4638.54 Safari/537.36" etag="9D_AVk4GqIUVEjBHo_h9" version="15.6.1" type="github">
  <diagram id="8FcxwntlZF2T-XgEo7Uk" name="Page-1">
    <mxGraphModel dx="1612" dy="2213" grid="1" gridSize="10" guides="1" tooltips="1" connect="1" arrows="1" fold="1" page="1" pageScale="1" pageWidth="827" pageHeight="1169" math="0" shadow="0">
      <root>
        <mxCell id="0" />
        <mxCell id="1" parent="0" />
        <mxCell id="dojlRmg2ilx-H2JKP8Cf-2" value="REGISTRAR&amp;nbsp;" style="ellipse;whiteSpace=wrap;html=1;" vertex="1" parent="1">
          <mxGeometry x="490" y="40" width="150" height="60" as="geometry" />
        </mxCell>
        <mxCell id="dojlRmg2ilx-H2JKP8Cf-3" value="ACESSO AO CONDOMINIO" style="ellipse;whiteSpace=wrap;html=1;" vertex="1" parent="1">
          <mxGeometry x="490" y="140" width="150" height="60" as="geometry" />
        </mxCell>
        <mxCell id="dojlRmg2ilx-H2JKP8Cf-4" value="ACESSO AOS CADASTROS" style="ellipse;whiteSpace=wrap;html=1;" vertex="1" parent="1">
          <mxGeometry x="490" y="240" width="150" height="60" as="geometry" />
        </mxCell>
        <mxCell id="dojlRmg2ilx-H2JKP8Cf-5" value="Porteiro&lt;br&gt;" style="shape=umlActor;verticalLabelPosition=bottom;verticalAlign=top;html=1;outlineConnect=0;" vertex="1" parent="1">
          <mxGeometry x="250" y="300" width="30" height="60" as="geometry" />
        </mxCell>
        <mxCell id="dojlRmg2ilx-H2JKP8Cf-6" value="Sindico&lt;br&gt;" style="shape=umlActor;verticalLabelPosition=bottom;verticalAlign=top;html=1;outlineConnect=0;" vertex="1" parent="1">
          <mxGeometry x="250" y="180" width="30" height="60" as="geometry" />
        </mxCell>
        <mxCell id="dojlRmg2ilx-H2JKP8Cf-11" value="Condomino&lt;br&gt;" style="shape=umlActor;verticalLabelPosition=bottom;verticalAlign=top;html=1;outlineConnect=0;" vertex="1" parent="1">
          <mxGeometry x="250" y="60" width="30" height="60" as="geometry" />
        </mxCell>
        <mxCell id="dojlRmg2ilx-H2JKP8Cf-175" value="ACESSO AO BANCO DE DADOS&lt;br&gt;" style="ellipse;whiteSpace=wrap;html=1;" vertex="1" parent="1">
          <mxGeometry x="500" y="440" width="150" height="60" as="geometry" />
        </mxCell>
        <mxCell id="dojlRmg2ilx-H2JKP8Cf-176" value="RELATORIO" style="ellipse;whiteSpace=wrap;html=1;" vertex="1" parent="1">
          <mxGeometry x="490" y="340" width="150" height="60" as="geometry" />
        </mxCell>
        <mxCell id="dojlRmg2ilx-H2JKP8Cf-178" value="Suporte&lt;br&gt;" style="shape=umlActor;verticalLabelPosition=bottom;verticalAlign=top;html=1;outlineConnect=0;" vertex="1" parent="1">
          <mxGeometry x="250" y="420" width="30" height="60" as="geometry" />
        </mxCell>
        <mxCell id="dojlRmg2ilx-H2JKP8Cf-179" value="" style="endArrow=classic;html=1;rounded=0;entryX=0;entryY=0.5;entryDx=0;entryDy=0;" edge="1" parent="1" target="dojlRmg2ilx-H2JKP8Cf-175">
          <mxGeometry width="50" height="50" relative="1" as="geometry">
            <mxPoint x="280" y="440" as="sourcePoint" />
            <mxPoint x="310" y="390" as="targetPoint" />
          </mxGeometry>
        </mxCell>
        <mxCell id="dojlRmg2ilx-H2JKP8Cf-180" value="" style="endArrow=classic;html=1;rounded=0;exitX=1;exitY=0.3333333333333333;exitDx=0;exitDy=0;exitPerimeter=0;entryX=0;entryY=0.5;entryDx=0;entryDy=0;" edge="1" parent="1" source="dojlRmg2ilx-H2JKP8Cf-5" target="dojlRmg2ilx-H2JKP8Cf-4">
          <mxGeometry width="50" height="50" relative="1" as="geometry">
            <mxPoint x="260" y="440" as="sourcePoint" />
            <mxPoint x="310" y="390" as="targetPoint" />
          </mxGeometry>
        </mxCell>
        <mxCell id="dojlRmg2ilx-H2JKP8Cf-181" value="" style="endArrow=classic;html=1;rounded=0;entryX=0;entryY=0.5;entryDx=0;entryDy=0;" edge="1" parent="1" target="dojlRmg2ilx-H2JKP8Cf-2">
          <mxGeometry width="50" height="50" relative="1" as="geometry">
            <mxPoint x="280" y="80" as="sourcePoint" />
            <mxPoint x="310" y="390" as="targetPoint" />
          </mxGeometry>
        </mxCell>
        <mxCell id="dojlRmg2ilx-H2JKP8Cf-182" value="" style="endArrow=classic;html=1;rounded=0;exitX=1;exitY=0.3333333333333333;exitDx=0;exitDy=0;exitPerimeter=0;entryX=0;entryY=0.5;entryDx=0;entryDy=0;" edge="1" parent="1" source="dojlRmg2ilx-H2JKP8Cf-6" target="dojlRmg2ilx-H2JKP8Cf-3">
          <mxGeometry width="50" height="50" relative="1" as="geometry">
            <mxPoint x="260" y="440" as="sourcePoint" />
            <mxPoint x="310" y="390" as="targetPoint" />
          </mxGeometry>
        </mxCell>
        <mxCell id="dojlRmg2ilx-H2JKP8Cf-183" value="" style="endArrow=classic;html=1;rounded=0;exitX=1;exitY=0.3333333333333333;exitDx=0;exitDy=0;exitPerimeter=0;entryX=0;entryY=0.5;entryDx=0;entryDy=0;" edge="1" parent="1" source="dojlRmg2ilx-H2JKP8Cf-5" target="dojlRmg2ilx-H2JKP8Cf-176">
          <mxGeometry width="50" height="50" relative="1" as="geometry">
            <mxPoint x="280" y="330" as="sourcePoint" />
            <mxPoint x="310" y="390" as="targetPoint" />
          </mxGeometry>
        </mxCell>
        <mxCell id="dojlRmg2ilx-H2JKP8Cf-184" value="" style="endArrow=classic;html=1;rounded=0;exitX=1;exitY=0.3333333333333333;exitDx=0;exitDy=0;exitPerimeter=0;entryX=0;entryY=0.5;entryDx=0;entryDy=0;" edge="1" parent="1" source="dojlRmg2ilx-H2JKP8Cf-6" target="dojlRmg2ilx-H2JKP8Cf-176">
          <mxGeometry width="50" height="50" relative="1" as="geometry">
            <mxPoint x="260" y="440" as="sourcePoint" />
            <mxPoint x="310" y="390" as="targetPoint" />
          </mxGeometry>
        </mxCell>
        <mxCell id="dojlRmg2ilx-H2JKP8Cf-185" value="" style="endArrow=classic;html=1;rounded=0;exitX=1;exitY=0.3333333333333333;exitDx=0;exitDy=0;exitPerimeter=0;entryX=0;entryY=0.5;entryDx=0;entryDy=0;" edge="1" parent="1" source="dojlRmg2ilx-H2JKP8Cf-11" target="dojlRmg2ilx-H2JKP8Cf-3">
          <mxGeometry width="50" height="50" relative="1" as="geometry">
            <mxPoint x="260" y="440" as="sourcePoint" />
            <mxPoint x="310" y="390" as="targetPoint" />
          </mxGeometry>
        </mxCell>
        <mxCell id="dojlRmg2ilx-H2JKP8Cf-186" value="" style="endArrow=classic;html=1;rounded=0;entryX=0;entryY=0.5;entryDx=0;entryDy=0;" edge="1" parent="1" target="dojlRmg2ilx-H2JKP8Cf-4">
          <mxGeometry width="50" height="50" relative="1" as="geometry">
            <mxPoint x="280" y="200" as="sourcePoint" />
            <mxPoint x="300" y="250" as="targetPoint" />
          </mxGeometry>
        </mxCell>
        <mxCell id="dojlRmg2ilx-H2JKP8Cf-187" value="" style="endArrow=classic;html=1;rounded=0;" edge="1" parent="1">
          <mxGeometry width="50" height="50" relative="1" as="geometry">
            <mxPoint x="280" y="440" as="sourcePoint" />
            <mxPoint x="490" y="370" as="targetPoint" />
          </mxGeometry>
        </mxCell>
        <mxCell id="dojlRmg2ilx-H2JKP8Cf-188" value="" style="endArrow=classic;html=1;rounded=0;exitX=1;exitY=0.3333333333333333;exitDx=0;exitDy=0;exitPerimeter=0;" edge="1" parent="1" source="dojlRmg2ilx-H2JKP8Cf-178">
          <mxGeometry width="50" height="50" relative="1" as="geometry">
            <mxPoint x="250" y="300" as="sourcePoint" />
            <mxPoint x="490" y="270" as="targetPoint" />
          </mxGeometry>
        </mxCell>
        <mxCell id="dojlRmg2ilx-H2JKP8Cf-189" value="IDEALIZADORES&lt;br&gt;RAFAEL MARTINS BEZERRA&lt;br&gt;WELLINGTON BARRETO DE SOUZA" style="text;html=1;strokeColor=none;fillColor=none;align=center;verticalAlign=middle;whiteSpace=wrap;rounded=0;" vertex="1" parent="1">
          <mxGeometry x="20" y="-80" width="600" height="110" as="geometry" />
        </mxCell>
      </root>
    </mxGraphModel>
  </diagram>
</mxfile>
